<?xml version="1.0" encoding="utf-8"?>
<!-- Generator: Adobe Illustrator 25.4.1, SVG Export Plug-In . SVG Version: 6.00 Build 0)  -->
<svg version="1.1" id="Layer_1" xmlns="http://www.w3.org/2000/svg" xmlns:xlink="http://www.w3.org/1999/xlink" x="0px" y="0px"
	 viewBox="0 0 1133.86 426" style="enable-background:new 0 0 1133.86 426;" xml:space="preserve">
<style type="text/css">
	.st0{clip-path:url(#XMLID_00000065055761506670505330000008136637937595237760_);}
	.st1{clip-path:url(#XMLID_00000076568410291244285230000002357953765984085666_);}
	.st2{clip-path:url(#XMLID_00000055702967323448189120000002209496988033158555_);}
	.st3{clip-path:url(#XMLID_00000169533305879753456440000012491675592299902902_);}
	.st4{clip-path:url(#XMLID_00000110455763094692719650000001356455710523877272_);}
	.st5{clip-path:url(#XMLID_00000031914184262074047110000013400795415884129163_);}
	.st6{clip-path:url(#XMLID_00000183250332702954634360000011156941311545867700_);}
	.st7{clip-path:url(#XMLID_00000042016402819044463280000001376454559556585361_);}
	.st8{clip-path:url(#XMLID_00000143597300306275029160000004064780290287826607_);}
	.st9{clip-path:url(#XMLID_00000116930344612072622500000010905205237854767282_);}
	.st10{clip-path:url(#XMLID_00000181078360912907562690000008480071462023463345_);}
	.st11{clip-path:url(#XMLID_00000037666927493625194580000003456393588950652588_);}
	.st12{clip-path:url(#XMLID_00000114785060197780424010000016391567643906578319_);}
	.st13{clip-path:url(#XMLID_00000142865595141255154780000006477711661521983122_);}
	.st14{clip-path:url(#XMLID_00000104704109480772234950000010508307083196017335_);}
	.st15{clip-path:url(#XMLID_00000022537551577279598670000004898532950167427512_);}
	.st16{clip-path:url(#XMLID_00000140712113743527504500000004238023913267422388_);}
	.st17{clip-path:url(#XMLID_00000047780960120868631010000003656175221952407704_);}
	.st18{clip-path:url(#XMLID_00000156588110818838090950000012605470274850222469_);}
	.st19{clip-path:url(#XMLID_00000017479819969546048150000008798060098689831559_);}
	.st20{clip-path:url(#XMLID_00000141451976410020736290000017879492507975370645_);}
	.st21{clip-path:url(#XMLID_00000062177815659777205220000006722110661541369991_);}
	.st22{clip-path:url(#XMLID_00000075845071678450938830000004503410184877143967_);}
	.st23{clip-path:url(#XMLID_00000095329697411072497840000007013016705471158701_);}
	.st24{clip-path:url(#XMLID_00000093879011207598896080000015252828723167662755_);}
	
		.st25{clip-path:url(#XMLID_00000134250962308414052980000018423219472854252167_);fill:url(#XMLID_00000029733079821810404010000008355728395721465534_);}
</style>
<g id="XMLID_7_">
	<defs>
		<polygon id="XMLID_37_" points="550.66,384.43 578.06,384.43 578.06,376.22 550.66,376.22 550.66,360.86 584.75,360.86 
			584.75,352.43 537.38,352.43 537.38,409.09 585.24,409.09 585.24,400.29 550.66,400.29 		"/>
	</defs>
	<defs>
		<polygon id="XMLID_192_" points="670.41,352.43 658,352.43 643.6,371.28 630,352.43 614.57,352.43 634.59,379.58 611.28,409.09 
			623.63,409.09 640.9,386.76 657.2,409.09 672.68,409.09 649.91,378.29 		"/>
	</defs>
	<defs>
		<polygon id="XMLID_193_" points="695.37,361.19 714.96,361.19 714.96,409.09 729.2,409.09 729.2,361.19 748.79,361.19 
			748.79,352.43 695.37,352.43 		"/>
	</defs>
	<defs>
		<path id="XMLID_196_" d="M836.77,369.04c0-4.9-2.09-8.89-6.26-11.97c-4.17-3.08-10.7-4.63-19.59-4.63h-31.94v56.65h13.27V385.8
			h18.67l11.44,23.28h14.03l-12.89-25.03C832.34,381.32,836.77,376.31,836.77,369.04z M819.45,375.3c-2.34,1.55-5.9,2.32-10.68,2.32
			h-16.51v-17.06h17.59c4.14,0,7.36,0.77,9.66,2.3c2.3,1.53,3.45,3.55,3.45,6.04C822.96,371.62,821.79,373.75,819.45,375.3z"/>
	</defs>
	<defs>
		<polygon id="XMLID_197_" points="885.36,384.43 912.77,384.43 912.77,376.22 885.36,376.22 885.36,360.86 919.46,360.86 
			919.46,352.43 872.09,352.43 872.09,409.09 919.95,409.09 919.95,400.29 885.36,400.29 		"/>
	</defs>
	<defs>
		<polygon id="XMLID_198_" points="989.69,388.92 974.26,352.43 953.49,352.43 953.49,409.09 964.33,409.09 964.33,359.49 
			984.83,409.09 991.8,409.09 1012.19,359.49 1012.19,409.09 1025.73,409.09 1025.73,352.43 1004.85,352.43 		"/>
	</defs>
	<defs>
		<polygon id="XMLID_199_" points="1077.35,384.43 1104.76,384.43 1104.76,376.22 1077.35,376.22 1077.35,360.86 1111.45,360.86 
			1111.45,352.43 1064.07,352.43 1064.07,409.09 1111.93,409.09 1111.93,400.29 1077.35,400.29 		"/>
	</defs>
	<defs>
		<path id="XMLID_202_" d="M464.63,320.52l-42.08-78.57H390.7c4.04,1.52,6.07,3.46,6.07,5.83c0,1.71-0.76,3.98-2.27,6.82
			l-35.26,65.93c-3.54,6.54-6.38,10.99-8.53,13.36c-2.15,2.37-5.5,4.64-10.05,6.82h36.77c-4.8-1.89-7.2-4.12-7.2-6.68
			c0-2.08,0.76-4.64,2.27-7.67l11.38-22.88h50.61l11.75,22.88c2.27,4.45,3.41,7.25,3.41,8.38c0,1.8-2.4,3.79-7.2,5.97h41.51
			c-4.42-1.99-7.96-4.36-10.62-7.1C470.7,330.84,467.79,326.48,464.63,320.52z M388.62,293.8l20.47-39.22l20.28,39.22H388.62z"/>
	</defs>
	<defs>
		<path id="XMLID_203_" d="M335.37,225.91c19.91-32.64,34.31-54.5,43.2-65.6c8.89-11.1,20.03-22.97,33.41-35.62
			c13.38-12.64,26.35-22.72,38.92-30.23c4.41,10.45,6.61,21.54,6.61,33.29c0,20.89-8.5,40.43-25.5,58.63
			c-17.01,18.2-32.01,27.29-45.03,27.29c-7.65,0-11.47-4-11.47-11.99c0-9.95,6.87-19.62,20.61-29.01
			c13.74-9.38,29.39-15.14,46.95-17.26l0.25-1.71c-14.69,0-30.07,5.14-46.14,15.42c-16.08,10.28-24.11,21.05-24.11,32.31
			c0,11.91,7.75,17.87,23.26,17.87c18.11,0,34.19-6.89,48.22-20.69c14.03-13.79,21.05-32.43,21.05-55.93
			c0-17.79-4.08-34.52-12.24-50.18c14.2-9.79,25.46-17.3,33.78-22.52l28.64-17.62l-0.49-1.71c-18.6,9.63-39.66,22.93-63.16,39.9
			c-7.67-14.2-23.74-27.25-48.22-39.17c-24.48-11.91-53.85-17.87-88.13-17.87c-39.17,0-76.05,7.67-110.65,23.01
			c-34.6,15.34-64.34,36.23-89.23,62.67c-24.89,26.44-37.33,51.65-37.33,75.64c0,15.67,7.14,29.58,21.42,41.74
			c14.28,12.16,34.06,18.24,59.36,18.24c40.8,0,78.13-14.01,111.99-42.04c33.86-28.02,50.79-54.5,50.79-79.43
			c0-10.59-4.16-19.47-12.48-26.64c-8.32-7.17-20.07-10.76-35.25-10.76c-30.68,0-61.32,11.93-91.92,35.78
			c-30.6,23.86-53,47.91-67.2,72.17l1.47,0.98c22.03-32.4,47.2-58.25,75.52-77.54c28.31-19.29,55.85-28.94,82.62-28.94
			c12.57,0,23.01,3.01,31.33,9.04c8.32,6.03,12.48,14.58,12.48,25.66c0,16.95-10.61,35.32-31.82,55.12
			c-21.22,19.8-44.64,35.27-70.25,46.43c-25.62,11.16-48.39,16.74-68.3,16.74c-17.47,0-33.05-5.7-46.76-17.12
			c-13.71-11.41-20.56-24.78-20.56-40.1c0-22.49,11.95-46.74,35.86-72.74c23.91-26,53.77-46.74,89.59-62.23
			c35.82-15.48,73.15-23.23,111.99-23.23c33.45,0,62.3,6.14,86.53,18.4c24.23,12.27,39.29,24.9,45.16,37.9
			c-26.93,18.93-50.39,38.43-70.38,58.51c-19.99,20.07-42.31,45.62-66.95,76.62l-26.68,33.54c-19.58,24.81-37.54,45.13-53.85,60.95
			c-16.32,15.83-35.34,28.36-57.04,37.58c-21.71,9.22-44.88,13.83-69.52,13.83c-16.81,0-32.27-2-46.39-6
			c-14.12-4-24.11-9.63-29.99-16.89c-5.88-7.26-8.81-13.1-8.81-17.5c0-1.96,1.06-4,3.18-6.12c2.77,3.43,6.69,5.14,11.75,5.14
			c4.41,0,7.99-1.39,10.77-4.16c2.77-2.77,4.16-6.28,4.16-10.53c0-4.73-1.71-8.61-5.14-11.63c-3.43-3.02-7.59-4.53-12.48-4.53
			c-5.88,0-10.81,2.16-14.81,6.49c-4,4.33-6,9.75-6,16.28c0,14.2,8.44,26.32,25.34,36.35c16.89,10.04,39.37,15.05,67.44,15.05
			c32.47,0,63.97-6.65,94.49-19.95c30.51-13.3,55.85-30.02,76.01-50.18C295.43,284.95,315.46,258.55,335.37,225.91z"/>
	</defs>
	<defs>
		<path id="XMLID_204_" d="M272.79,269.52v-8.4c0-5.49,0.25-9.09,0.76-10.8c1.14-3.88,3.85-6.68,8.15-8.38h-37.91
			c4.3,1.71,7.01,4.5,8.15,8.38c0.5,1.71,0.76,5.31,0.76,10.8v32.02C259.19,285.85,265.89,277.97,272.79,269.52z"/>
	</defs>
	<defs>
		<path id="XMLID_205_" d="M299.71,330.04c-8.59,0-17.57-0.52-26.92-1.56v-14.03c-6.39,5.89-13.27,11.5-20.62,16.8
			c-0.07,0.4-0.15,0.77-0.23,1.07c-1.14,3.89-3.86,6.68-8.15,8.38h81.7l10.62-19.89c-6.57,3.51-12.48,5.92-17.72,7.25
			C313.14,329.37,306.92,330.04,299.71,330.04z"/>
	</defs>
	<defs>
		<path id="XMLID_206_" d="M955.42,250.18c0,0.55-0.13,1.65-0.38,3.27c7.78-1.08,15.5-2.16,23.12-3.11c2.82-0.35,5.6-0.71,8.4-1.06
			l-1.18-2.08c-1.26-2.18-1.9-3.93-1.9-5.26H948.4C953.08,244.41,955.42,247.15,955.42,250.18z"/>
	</defs>
	<defs>
		<path id="XMLID_207_" d="M956.74,330.75c0-1.61,0.32-4.21,0.95-7.82l9.02-50.81c-5.07,0.47-10.17,0.96-15.31,1.43l-8.69,47.39
			c-1.64,9.19-5.25,15.77-10.81,19.75h32.79C959.4,337.85,956.74,334.54,956.74,330.75z"/>
	</defs>
	<defs>
		<path id="XMLID_208_" d="M977.6,271.15l31.09,55.05c2.27,4.07,4.39,7.08,6.35,9.02c1.96,1.94,5.34,4.43,10.14,7.46l41.02-78.49
			c-5.4,0.4-10.92,0.8-16.53,1.21l-25.82,49.57L998,269.44c-5.81,0.49-11.67,0.98-17.61,1.46
			C979.46,270.98,978.52,271.07,977.6,271.15z"/>
	</defs>
	<defs>
		<path id="XMLID_209_" d="M1081.67,329.32c0,5.78-2.78,9.57-8.34,11.37H1112c-3.67-2.18-6.1-4.36-7.3-6.54
			c-1.2-2.18-2.31-5.92-3.32-11.23l-11.22-60.3c-6.11,0.4-12.41,0.8-18.88,1.22l9.44,57.08
			C1081.35,324.73,1081.67,327.53,1081.67,329.32z"/>
	</defs>
	<defs>
		<path id="XMLID_210_" d="M887.55,250.32c0.5,1.8,0.76,5.4,0.76,10.8V263c6.72-1,13.42-2,20.1-3c0.03-4.77,0.28-8.01,0.75-9.68
			c1.14-3.79,3.85-6.58,8.15-8.38H879.4C883.7,243.74,886.42,246.54,887.55,250.32z"/>
	</defs>
	<defs>
		<path id="XMLID_211_" d="M889.07,340.69h28.25c-4.3-1.8-7.01-4.59-8.15-8.38c-0.51-1.8-0.76-5.4-0.76-10.8v-43.76
			c-6.68,0.7-13.37,1.41-20.09,2.12v30c0,4.93-1.27,8.81-3.79,11.65c-6.7,7.1-16.43,10.66-29.19,10.66
			c-10.74,0-19.21-2.75-25.4-8.24c-4.68-4.17-7.01-10.56-7.01-19.18v-17.41c-6.72,0.8-13.42,1.63-20.09,2.48v14.93
			c0,7.77,0.63,13.36,1.9,16.77c2.78,7.01,8.53,12.46,17.25,16.34c7.84,3.5,17,5.26,27.49,5.26c16.93,0,30.14-4.26,39.62-12.79
			V340.69z"/>
	</defs>
	<defs>
		<path id="XMLID_212_" d="M802.06,250.32c0.5,1.71,0.76,5.31,0.76,10.8v15.55c6.67-1.14,13.38-2.25,20.09-3.35v-12.2
			c0-5.4,0.25-9,0.76-10.8c1.14-3.79,3.85-6.58,8.15-8.38h-37.91C798.2,243.65,800.92,246.44,802.06,250.32z"/>
	</defs>
	<defs>
		<path id="XMLID_215_" d="M749.45,248.62c1.45,2.37,2.18,6.02,2.18,10.94v26.19c0.91-0.17,1.81-0.34,2.72-0.5
			c3.94-0.7,7.9-1.4,11.87-2.1v-23.58c0-5.02,0.69-8.69,2.09-11.01c1.39-2.32,4.23-4.52,8.53-6.61h-35.83
			C745.19,244.03,748,246.25,749.45,248.62z"/>
	</defs>
	<defs>
		<path id="XMLID_216_" d="M651.83,248.55c1.45,2.42,2.18,6.09,2.18,11.01v45.72c3.78-0.8,7.6-1.62,11.47-2.44
			c1.04-0.22,2.09-0.44,3.13-0.66v-39.06l33.81,32.12c6.88-1.33,13.82-2.68,20.88-4.05l-45.78-43.7c-2.91-3.13-4.49-4.97-4.74-5.54
			h-29.19C647.62,243.93,650.37,246.13,651.83,248.55z"/>
	</defs>
	<defs>
		<path id="XMLID_217_" d="M751.63,296.65v21.59l-19.59-18.7c-2.29,0.34-4.57,0.69-6.85,1.02c-4.99,0.75-9.94,1.48-14.85,2.22
			l28.39,26.97c8.59,8.15,17.75,13.4,27.49,15.77v-50.84c-3.38,0.45-6.77,0.9-10.13,1.35C754.6,296.23,753.12,296.44,751.63,296.65z
			"/>
	</defs>
	<defs>
		<path id="XMLID_226_" d="M670.78,334.08c-1.45-2.42-2.18-6.09-2.18-11.01v-13.64c-0.61,0.1-1.22,0.21-1.83,0.31
			c-4.31,0.73-8.57,1.44-12.77,2.15v11.19c0,5.02-0.7,8.69-2.08,11.01c-1.39,2.32-4.24,4.52-8.53,6.61h35.64
			C674.98,338.7,672.24,336.5,670.78,334.08z"/>
	</defs>
	<defs>
		<path id="XMLID_229_" d="M595.44,250.32c0.5,1.71,0.76,5.31,0.76,10.8v57.17c5.6-1.32,11.41-2.68,17.41-4.09
			c0.88-0.21,1.79-0.42,2.68-0.63v-52.45c0-5.49,0.25-9.09,0.76-10.8c1.14-3.88,3.85-6.68,8.15-8.38h-37.91
			C591.58,243.65,594.3,246.44,595.44,250.32z"/>
	</defs>
	<defs>
		<path id="XMLID_244_" d="M617.05,332.31c-0.51-1.71-0.76-5.3-0.76-10.8v-3.01c-0.57,0.11-1.16,0.22-1.73,0.33
			c-6.34,1.2-12.47,2.36-18.37,3.48c-0.02,5.03-0.27,8.38-0.75,9.99c-1.14,3.89-3.86,6.68-8.15,8.38h37.91
			C620.9,338.99,618.18,336.19,617.05,332.31z"/>
	</defs>
	<defs>
		<path id="XMLID_245_" d="M515.44,332.31c-1.14,3.89-3.86,6.68-8.15,8.38c0,0,10.6-2.76,29.15-7.59c0.44-0.11,0.9-0.23,1.35-0.35
			c-0.99-2.3-1.49-5.52-1.49-9.68v-69.48h3.22c3.66,0,6.66-0.07,9-0.21c2.34-0.14,4.01-0.21,5.02-0.21c5.05,0,8.65,0.24,10.81,0.71
			c3.54,0.76,6.19,2.42,7.96,4.97l6.45-17.9c-2.02,0.38-3.35,0.62-3.98,0.71c-3.54,0.19-6.13,0.28-7.77,0.28h-75.26
			c-4.17,0-7.58-0.33-10.24-0.99l-7.39,17.9c4.3-2.46,8.4-4.07,12.32-4.83c3.03-0.57,7.58-0.85,13.65-0.85
			c6.82,0,12.19,0.14,16.11,0.43v67.92C516.2,326.91,515.94,330.51,515.44,332.31z"/>
	</defs>
	<defs>
		<path id="XMLID_246_" d="M538.42,334.01c-0.56,0.12-1.14,0.24-1.69,0.36c-18.74,4.02-29.45,6.32-29.45,6.32h39.62
			C542.65,338.54,539.83,336.31,538.42,334.01z"/>
	</defs>
	
		<linearGradient id="XMLID_00000062890204085696366110000005850553762073243056_" gradientUnits="userSpaceOnUse" x1="785.4642" y1="164.0238" x2="328.3438" y2="606.0189">
		<stop  offset="0" style="stop-color:#9A9999"/>
		<stop  offset="0.2328" style="stop-color:#C7C6C6"/>
		<stop  offset="0.4116" style="stop-color:#E7E6E6"/>
		<stop  offset="0.6183" style="stop-color:#A2A2A1"/>
		<stop  offset="0.7082" style="stop-color:#828181"/>
		<stop  offset="0.908" style="stop-color:#484747"/>
		<stop  offset="1" style="stop-color:#343434"/>
	</linearGradient>
	<use xlink:href="#XMLID_37_"  style="overflow:visible;fill:url(#XMLID_00000062890204085696366110000005850553762073243056_);"/>
	
		<linearGradient id="XMLID_00000119810879090687150150000010277760619121214119_" gradientUnits="userSpaceOnUse" x1="825.2371" y1="205.1577" x2="368.1167" y2="647.1528">
		<stop  offset="0" style="stop-color:#9A9999"/>
		<stop  offset="0.2328" style="stop-color:#C7C6C6"/>
		<stop  offset="0.4116" style="stop-color:#E7E6E6"/>
		<stop  offset="0.6183" style="stop-color:#A2A2A1"/>
		<stop  offset="0.7082" style="stop-color:#828181"/>
		<stop  offset="0.908" style="stop-color:#484747"/>
		<stop  offset="1" style="stop-color:#343434"/>
	</linearGradient>
	<use xlink:href="#XMLID_192_"  style="overflow:visible;fill:url(#XMLID_00000119810879090687150150000010277760619121214119_);"/>
	
		<linearGradient id="XMLID_00000149363292361785381480000015404996501668540050_" gradientUnits="userSpaceOnUse" x1="858.4146" y1="239.4706" x2="401.2942" y2="681.4656">
		<stop  offset="0" style="stop-color:#9A9999"/>
		<stop  offset="0.2328" style="stop-color:#C7C6C6"/>
		<stop  offset="0.4116" style="stop-color:#E7E6E6"/>
		<stop  offset="0.6183" style="stop-color:#A2A2A1"/>
		<stop  offset="0.7082" style="stop-color:#828181"/>
		<stop  offset="0.908" style="stop-color:#484747"/>
		<stop  offset="1" style="stop-color:#343434"/>
	</linearGradient>
	<use xlink:href="#XMLID_193_"  style="overflow:visible;fill:url(#XMLID_00000149363292361785381480000015404996501668540050_);"/>
	
		<linearGradient id="XMLID_00000041275503888158176840000012111828971549516479_" gradientUnits="userSpaceOnUse" x1="904.5089" y1="287.1422" x2="447.3885" y2="729.1373">
		<stop  offset="0" style="stop-color:#9A9999"/>
		<stop  offset="0.2328" style="stop-color:#C7C6C6"/>
		<stop  offset="0.4116" style="stop-color:#E7E6E6"/>
		<stop  offset="0.6183" style="stop-color:#A2A2A1"/>
		<stop  offset="0.7082" style="stop-color:#828181"/>
		<stop  offset="0.908" style="stop-color:#484747"/>
		<stop  offset="1" style="stop-color:#343434"/>
	</linearGradient>
	<use xlink:href="#XMLID_196_"  style="overflow:visible;fill:url(#XMLID_00000041275503888158176840000012111828971549516479_);"/>
	
		<linearGradient id="XMLID_00000001630417206311449830000000715779700503856050_" gradientUnits="userSpaceOnUse" x1="947.1893" y1="331.2832" x2="490.0689" y2="773.2783">
		<stop  offset="0" style="stop-color:#9A9999"/>
		<stop  offset="0.2328" style="stop-color:#C7C6C6"/>
		<stop  offset="0.4116" style="stop-color:#E7E6E6"/>
		<stop  offset="0.6183" style="stop-color:#A2A2A1"/>
		<stop  offset="0.7082" style="stop-color:#828181"/>
		<stop  offset="0.908" style="stop-color:#484747"/>
		<stop  offset="1" style="stop-color:#343434"/>
	</linearGradient>
	<use xlink:href="#XMLID_197_"  style="overflow:visible;fill:url(#XMLID_00000001630417206311449830000000715779700503856050_);"/>
	
		<linearGradient id="XMLID_00000101088152141345136540000006997632456698986137_" gradientUnits="userSpaceOnUse" x1="992.4108" y1="378.0523" x2="535.2905" y2="820.0473">
		<stop  offset="0" style="stop-color:#9A9999"/>
		<stop  offset="0.2328" style="stop-color:#C7C6C6"/>
		<stop  offset="0.4116" style="stop-color:#E7E6E6"/>
		<stop  offset="0.6183" style="stop-color:#A2A2A1"/>
		<stop  offset="0.7082" style="stop-color:#828181"/>
		<stop  offset="0.908" style="stop-color:#484747"/>
		<stop  offset="1" style="stop-color:#343434"/>
	</linearGradient>
	<use xlink:href="#XMLID_198_"  style="overflow:visible;fill:url(#XMLID_00000101088152141345136540000006997632456698986137_);"/>
	
		<linearGradient id="XMLID_00000065762628487623480210000010651903570560251035_" gradientUnits="userSpaceOnUse" x1="1039.9528" y1="427.2211" x2="582.8323" y2="869.2161">
		<stop  offset="0" style="stop-color:#9A9999"/>
		<stop  offset="0.2328" style="stop-color:#C7C6C6"/>
		<stop  offset="0.4116" style="stop-color:#E7E6E6"/>
		<stop  offset="0.6183" style="stop-color:#A2A2A1"/>
		<stop  offset="0.7082" style="stop-color:#828181"/>
		<stop  offset="0.908" style="stop-color:#484747"/>
		<stop  offset="1" style="stop-color:#343434"/>
	</linearGradient>
	<use xlink:href="#XMLID_199_"  style="overflow:visible;fill:url(#XMLID_00000065762628487623480210000010651903570560251035_);"/>
	
		<linearGradient id="XMLID_00000094603125701584280620000004528025252763934381_" gradientUnits="userSpaceOnUse" x1="680.8655" y1="55.8457" x2="223.7451" y2="497.8407">
		<stop  offset="0" style="stop-color:#9A9999"/>
		<stop  offset="0.2328" style="stop-color:#C7C6C6"/>
		<stop  offset="0.4116" style="stop-color:#E7E6E6"/>
		<stop  offset="0.6183" style="stop-color:#A2A2A1"/>
		<stop  offset="0.7082" style="stop-color:#828181"/>
		<stop  offset="0.908" style="stop-color:#484747"/>
		<stop  offset="1" style="stop-color:#343434"/>
	</linearGradient>
	<use xlink:href="#XMLID_202_"  style="overflow:visible;fill:url(#XMLID_00000094603125701584280620000004528025252763934381_);"/>
	
		<linearGradient id="XMLID_00000165229643706946575320000010749992600600003220_" gradientUnits="userSpaceOnUse" x1="538.6819" y1="-91.2034" x2="81.5616" y2="350.7916">
		<stop  offset="0" style="stop-color:#9A9999"/>
		<stop  offset="0.2328" style="stop-color:#C7C6C6"/>
		<stop  offset="0.4116" style="stop-color:#E7E6E6"/>
		<stop  offset="0.6183" style="stop-color:#A2A2A1"/>
		<stop  offset="0.7082" style="stop-color:#828181"/>
		<stop  offset="0.908" style="stop-color:#484747"/>
		<stop  offset="1" style="stop-color:#343434"/>
	</linearGradient>
	<use xlink:href="#XMLID_203_"  style="overflow:visible;fill:url(#XMLID_00000165229643706946575320000010749992600600003220_);"/>
	
		<linearGradient id="XMLID_00000126315772504927864720000013956908391195981733_" gradientUnits="userSpaceOnUse" x1="577.619" y1="-50.9339" x2="120.4987" y2="391.0611">
		<stop  offset="0" style="stop-color:#9A9999"/>
		<stop  offset="0.2328" style="stop-color:#C7C6C6"/>
		<stop  offset="0.4116" style="stop-color:#E7E6E6"/>
		<stop  offset="0.6183" style="stop-color:#A2A2A1"/>
		<stop  offset="0.7082" style="stop-color:#828181"/>
		<stop  offset="0.908" style="stop-color:#484747"/>
		<stop  offset="1" style="stop-color:#343434"/>
	</linearGradient>
	<use xlink:href="#XMLID_204_"  style="overflow:visible;fill:url(#XMLID_00000126315772504927864720000013956908391195981733_);"/>
	
		<linearGradient id="XMLID_00000076585094135519907940000008019607567537073316_" gradientUnits="userSpaceOnUse" x1="631.4253" y1="4.7136" x2="174.3049" y2="446.7087">
		<stop  offset="0" style="stop-color:#9A9999"/>
		<stop  offset="0.2328" style="stop-color:#C7C6C6"/>
		<stop  offset="0.4116" style="stop-color:#E7E6E6"/>
		<stop  offset="0.6183" style="stop-color:#A2A2A1"/>
		<stop  offset="0.7082" style="stop-color:#828181"/>
		<stop  offset="0.908" style="stop-color:#484747"/>
		<stop  offset="1" style="stop-color:#343434"/>
	</linearGradient>
	<use xlink:href="#XMLID_205_"  style="overflow:visible;fill:url(#XMLID_00000076585094135519907940000008019607567537073316_);"/>
	
		<linearGradient id="XMLID_00000172426823808705768470000013420225409802898581_" gradientUnits="userSpaceOnUse" x1="914.1798" y1="297.1441" x2="457.0594" y2="739.1392">
		<stop  offset="0" style="stop-color:#9A9999"/>
		<stop  offset="0.2328" style="stop-color:#C7C6C6"/>
		<stop  offset="0.4116" style="stop-color:#E7E6E6"/>
		<stop  offset="0.6183" style="stop-color:#A2A2A1"/>
		<stop  offset="0.7082" style="stop-color:#828181"/>
		<stop  offset="0.908" style="stop-color:#484747"/>
		<stop  offset="1" style="stop-color:#343434"/>
	</linearGradient>
	<use xlink:href="#XMLID_206_"  style="overflow:visible;fill:url(#XMLID_00000172426823808705768470000013420225409802898581_);"/>
	
		<linearGradient id="XMLID_00000063609637473399785150000014739802379017568184_" gradientUnits="userSpaceOnUse" x1="940.3651" y1="324.2256" x2="483.2448" y2="766.2206">
		<stop  offset="0" style="stop-color:#9A9999"/>
		<stop  offset="0.2328" style="stop-color:#C7C6C6"/>
		<stop  offset="0.4116" style="stop-color:#E7E6E6"/>
		<stop  offset="0.6183" style="stop-color:#A2A2A1"/>
		<stop  offset="0.7082" style="stop-color:#828181"/>
		<stop  offset="0.908" style="stop-color:#484747"/>
		<stop  offset="1" style="stop-color:#343434"/>
	</linearGradient>
	<use xlink:href="#XMLID_207_"  style="overflow:visible;fill:url(#XMLID_00000063609637473399785150000014739802379017568184_);"/>
	
		<linearGradient id="XMLID_00000175301763424920722420000012409878023222089890_" gradientUnits="userSpaceOnUse" x1="961.1992" y1="345.7726" x2="504.0788" y2="787.7676">
		<stop  offset="0" style="stop-color:#9A9999"/>
		<stop  offset="0.2328" style="stop-color:#C7C6C6"/>
		<stop  offset="0.4116" style="stop-color:#E7E6E6"/>
		<stop  offset="0.6183" style="stop-color:#A2A2A1"/>
		<stop  offset="0.7082" style="stop-color:#828181"/>
		<stop  offset="0.908" style="stop-color:#484747"/>
		<stop  offset="1" style="stop-color:#343434"/>
	</linearGradient>
	<use xlink:href="#XMLID_208_"  style="overflow:visible;fill:url(#XMLID_00000175301763424920722420000012409878023222089890_);"/>
	
		<linearGradient id="XMLID_00000111898343149893025150000013219641881589718160_" gradientUnits="userSpaceOnUse" x1="1002.4905" y1="388.4769" x2="545.3702" y2="830.4719">
		<stop  offset="0" style="stop-color:#9A9999"/>
		<stop  offset="0.2328" style="stop-color:#C7C6C6"/>
		<stop  offset="0.4116" style="stop-color:#E7E6E6"/>
		<stop  offset="0.6183" style="stop-color:#A2A2A1"/>
		<stop  offset="0.7082" style="stop-color:#828181"/>
		<stop  offset="0.908" style="stop-color:#484747"/>
		<stop  offset="1" style="stop-color:#343434"/>
	</linearGradient>
	<use xlink:href="#XMLID_209_"  style="overflow:visible;fill:url(#XMLID_00000111898343149893025150000013219641881589718160_);"/>
	
		<linearGradient id="XMLID_00000182515831626283537640000010993746893611207605_" gradientUnits="userSpaceOnUse" x1="881.3109" y1="263.1505" x2="424.1906" y2="705.1455">
		<stop  offset="0" style="stop-color:#9A9999"/>
		<stop  offset="0.2328" style="stop-color:#C7C6C6"/>
		<stop  offset="0.4116" style="stop-color:#E7E6E6"/>
		<stop  offset="0.6183" style="stop-color:#A2A2A1"/>
		<stop  offset="0.7082" style="stop-color:#828181"/>
		<stop  offset="0.908" style="stop-color:#484747"/>
		<stop  offset="1" style="stop-color:#343434"/>
	</linearGradient>
	<use xlink:href="#XMLID_210_"  style="overflow:visible;fill:url(#XMLID_00000182515831626283537640000010993746893611207605_);"/>
	
		<linearGradient id="XMLID_00000182498340248918617770000010167913364636047034_" gradientUnits="userSpaceOnUse" x1="897.0825" y1="279.4618" x2="439.9622" y2="721.4568">
		<stop  offset="0" style="stop-color:#9A9999"/>
		<stop  offset="0.2328" style="stop-color:#C7C6C6"/>
		<stop  offset="0.4116" style="stop-color:#E7E6E6"/>
		<stop  offset="0.6183" style="stop-color:#A2A2A1"/>
		<stop  offset="0.7082" style="stop-color:#828181"/>
		<stop  offset="0.908" style="stop-color:#484747"/>
		<stop  offset="1" style="stop-color:#343434"/>
	</linearGradient>
	<use xlink:href="#XMLID_211_"  style="overflow:visible;fill:url(#XMLID_00000182498340248918617770000010167913364636047034_);"/>
	
		<linearGradient id="XMLID_00000050650623554023457630000016982780816622314657_" gradientUnits="userSpaceOnUse" x1="843.3275" y1="223.8673" x2="386.2072" y2="665.8623">
		<stop  offset="0" style="stop-color:#9A9999"/>
		<stop  offset="0.2328" style="stop-color:#C7C6C6"/>
		<stop  offset="0.4116" style="stop-color:#E7E6E6"/>
		<stop  offset="0.6183" style="stop-color:#A2A2A1"/>
		<stop  offset="0.7082" style="stop-color:#828181"/>
		<stop  offset="0.908" style="stop-color:#484747"/>
		<stop  offset="1" style="stop-color:#343434"/>
	</linearGradient>
	<use xlink:href="#XMLID_212_"  style="overflow:visible;fill:url(#XMLID_00000050650623554023457630000016982780816622314657_);"/>
	
		<linearGradient id="XMLID_00000044892003782376120370000001935421016663981245_" gradientUnits="userSpaceOnUse" x1="819.3115" y1="199.0294" x2="362.1912" y2="641.0245">
		<stop  offset="0" style="stop-color:#9A9999"/>
		<stop  offset="0.2328" style="stop-color:#C7C6C6"/>
		<stop  offset="0.4116" style="stop-color:#E7E6E6"/>
		<stop  offset="0.6183" style="stop-color:#A2A2A1"/>
		<stop  offset="0.7082" style="stop-color:#828181"/>
		<stop  offset="0.908" style="stop-color:#484747"/>
		<stop  offset="1" style="stop-color:#343434"/>
	</linearGradient>
	<use xlink:href="#XMLID_215_"  style="overflow:visible;fill:url(#XMLID_00000044892003782376120370000001935421016663981245_);"/>
	
		<linearGradient id="XMLID_00000086668495790836725550000017001577901214570418_" gradientUnits="userSpaceOnUse" x1="787.407" y1="166.0331" x2="330.2867" y2="608.0282">
		<stop  offset="0" style="stop-color:#9A9999"/>
		<stop  offset="0.2328" style="stop-color:#C7C6C6"/>
		<stop  offset="0.4116" style="stop-color:#E7E6E6"/>
		<stop  offset="0.6183" style="stop-color:#A2A2A1"/>
		<stop  offset="0.7082" style="stop-color:#828181"/>
		<stop  offset="0.908" style="stop-color:#484747"/>
		<stop  offset="1" style="stop-color:#343434"/>
	</linearGradient>
	<use xlink:href="#XMLID_216_"  style="overflow:visible;fill:url(#XMLID_00000086668495790836725550000017001577901214570418_);"/>
	
		<linearGradient id="XMLID_00000020375898172536178540000017038599992055026365_" gradientUnits="userSpaceOnUse" x1="842.6902" y1="223.2081" x2="385.5698" y2="665.2032">
		<stop  offset="0" style="stop-color:#9A9999"/>
		<stop  offset="0.2328" style="stop-color:#C7C6C6"/>
		<stop  offset="0.4116" style="stop-color:#E7E6E6"/>
		<stop  offset="0.6183" style="stop-color:#A2A2A1"/>
		<stop  offset="0.7082" style="stop-color:#828181"/>
		<stop  offset="0.908" style="stop-color:#484747"/>
		<stop  offset="1" style="stop-color:#343434"/>
	</linearGradient>
	<use xlink:href="#XMLID_217_"  style="overflow:visible;fill:url(#XMLID_00000020375898172536178540000017038599992055026365_);"/>
	
		<linearGradient id="XMLID_00000059277777199640470470000008271353308397837499_" gradientUnits="userSpaceOnUse" x1="809.077" y1="188.4447" x2="351.9567" y2="630.4398">
		<stop  offset="0" style="stop-color:#9A9999"/>
		<stop  offset="0.2328" style="stop-color:#C7C6C6"/>
		<stop  offset="0.4116" style="stop-color:#E7E6E6"/>
		<stop  offset="0.6183" style="stop-color:#A2A2A1"/>
		<stop  offset="0.7082" style="stop-color:#828181"/>
		<stop  offset="0.908" style="stop-color:#484747"/>
		<stop  offset="1" style="stop-color:#343434"/>
	</linearGradient>
	<use xlink:href="#XMLID_226_"  style="overflow:visible;fill:url(#XMLID_00000059277777199640470470000008271353308397837499_);"/>
	
		<linearGradient id="XMLID_00000183233592910467543490000017823344505313631929_" gradientUnits="userSpaceOnUse" x1="753.5477" y1="131.0151" x2="296.4273" y2="573.0101">
		<stop  offset="0" style="stop-color:#9A9999"/>
		<stop  offset="0.2328" style="stop-color:#C7C6C6"/>
		<stop  offset="0.4116" style="stop-color:#E7E6E6"/>
		<stop  offset="0.6183" style="stop-color:#A2A2A1"/>
		<stop  offset="0.7082" style="stop-color:#828181"/>
		<stop  offset="0.908" style="stop-color:#484747"/>
		<stop  offset="1" style="stop-color:#343434"/>
	</linearGradient>
	<use xlink:href="#XMLID_229_"  style="overflow:visible;fill:url(#XMLID_00000183233592910467543490000017823344505313631929_);"/>
	
		<linearGradient id="XMLID_00000098190112670549490200000012841691259144630427_" gradientUnits="userSpaceOnUse" x1="784.7098" y1="163.2436" x2="327.5895" y2="605.2387">
		<stop  offset="0" style="stop-color:#9A9999"/>
		<stop  offset="0.2328" style="stop-color:#C7C6C6"/>
		<stop  offset="0.4116" style="stop-color:#E7E6E6"/>
		<stop  offset="0.6183" style="stop-color:#A2A2A1"/>
		<stop  offset="0.7082" style="stop-color:#828181"/>
		<stop  offset="0.908" style="stop-color:#484747"/>
		<stop  offset="1" style="stop-color:#343434"/>
	</linearGradient>
	<use xlink:href="#XMLID_244_"  style="overflow:visible;fill:url(#XMLID_00000098190112670549490200000012841691259144630427_);"/>
	
		<linearGradient id="XMLID_00000001663574683894813170000005917885828495882128_" gradientUnits="userSpaceOnUse" x1="713.5729" y1="89.6723" x2="256.4525" y2="531.6674">
		<stop  offset="0" style="stop-color:#9A9999"/>
		<stop  offset="0.2328" style="stop-color:#C7C6C6"/>
		<stop  offset="0.4116" style="stop-color:#E7E6E6"/>
		<stop  offset="0.6183" style="stop-color:#A2A2A1"/>
		<stop  offset="0.7082" style="stop-color:#828181"/>
		<stop  offset="0.908" style="stop-color:#484747"/>
		<stop  offset="1" style="stop-color:#343434"/>
	</linearGradient>
	<use xlink:href="#XMLID_245_"  style="overflow:visible;fill:url(#XMLID_00000001663574683894813170000005917885828495882128_);"/>
	
		<linearGradient id="XMLID_00000057849893768393435030000015624397663711152827_" gradientUnits="userSpaceOnUse" x1="748.9098" y1="126.2185" x2="291.7894" y2="568.2136">
		<stop  offset="0" style="stop-color:#9A9999"/>
		<stop  offset="0.2328" style="stop-color:#C7C6C6"/>
		<stop  offset="0.4116" style="stop-color:#E7E6E6"/>
		<stop  offset="0.6183" style="stop-color:#A2A2A1"/>
		<stop  offset="0.7082" style="stop-color:#828181"/>
		<stop  offset="0.908" style="stop-color:#484747"/>
		<stop  offset="1" style="stop-color:#343434"/>
	</linearGradient>
	<use xlink:href="#XMLID_246_"  style="overflow:visible;fill:url(#XMLID_00000057849893768393435030000015624397663711152827_);"/>
	<clipPath id="XMLID_00000109745794065032126700000003018988012988934025_">
		<use xlink:href="#XMLID_37_"  style="overflow:visible;"/>
	</clipPath>
	
		<clipPath id="XMLID_00000170965280421048876270000010653872635796454299_" style="clip-path:url(#XMLID_00000109745794065032126700000003018988012988934025_);">
		<use xlink:href="#XMLID_192_"  style="overflow:visible;"/>
	</clipPath>
	
		<clipPath id="XMLID_00000113322360864317785180000010172489427375465396_" style="clip-path:url(#XMLID_00000170965280421048876270000010653872635796454299_);">
		<use xlink:href="#XMLID_193_"  style="overflow:visible;"/>
	</clipPath>
	
		<clipPath id="XMLID_00000158745672317838924320000017183763176451556238_" style="clip-path:url(#XMLID_00000113322360864317785180000010172489427375465396_);">
		<use xlink:href="#XMLID_196_"  style="overflow:visible;"/>
	</clipPath>
	
		<clipPath id="XMLID_00000095314278870011341490000014721769704504687236_" style="clip-path:url(#XMLID_00000158745672317838924320000017183763176451556238_);">
		<use xlink:href="#XMLID_197_"  style="overflow:visible;"/>
	</clipPath>
	
		<clipPath id="XMLID_00000035523584980955244670000007758994231689768617_" style="clip-path:url(#XMLID_00000095314278870011341490000014721769704504687236_);">
		<use xlink:href="#XMLID_198_"  style="overflow:visible;"/>
	</clipPath>
	
		<clipPath id="XMLID_00000145017733135306356110000007418830542050037903_" style="clip-path:url(#XMLID_00000035523584980955244670000007758994231689768617_);">
		<use xlink:href="#XMLID_199_"  style="overflow:visible;"/>
	</clipPath>
	
		<clipPath id="XMLID_00000165230327344426323140000011015406893498456459_" style="clip-path:url(#XMLID_00000145017733135306356110000007418830542050037903_);">
		<use xlink:href="#XMLID_202_"  style="overflow:visible;"/>
	</clipPath>
	
		<clipPath id="XMLID_00000084496835519207502380000014771987911927581344_" style="clip-path:url(#XMLID_00000165230327344426323140000011015406893498456459_);">
		<use xlink:href="#XMLID_203_"  style="overflow:visible;"/>
	</clipPath>
	
		<clipPath id="XMLID_00000139263232994364374040000004639393524959843228_" style="clip-path:url(#XMLID_00000084496835519207502380000014771987911927581344_);">
		<use xlink:href="#XMLID_204_"  style="overflow:visible;"/>
	</clipPath>
	
		<clipPath id="XMLID_00000031907055958019810660000007323187606811422104_" style="clip-path:url(#XMLID_00000139263232994364374040000004639393524959843228_);">
		<use xlink:href="#XMLID_205_"  style="overflow:visible;"/>
	</clipPath>
	
		<clipPath id="XMLID_00000041268181462124509910000005915774960205805240_" style="clip-path:url(#XMLID_00000031907055958019810660000007323187606811422104_);">
		<use xlink:href="#XMLID_206_"  style="overflow:visible;"/>
	</clipPath>
	
		<clipPath id="XMLID_00000108287379989600954710000015638942793737378748_" style="clip-path:url(#XMLID_00000041268181462124509910000005915774960205805240_);">
		<use xlink:href="#XMLID_207_"  style="overflow:visible;"/>
	</clipPath>
	
		<clipPath id="XMLID_00000118381813561664452750000014011165854651444653_" style="clip-path:url(#XMLID_00000108287379989600954710000015638942793737378748_);">
		<use xlink:href="#XMLID_208_"  style="overflow:visible;"/>
	</clipPath>
	
		<clipPath id="XMLID_00000160886511560386101930000006405647839204117399_" style="clip-path:url(#XMLID_00000118381813561664452750000014011165854651444653_);">
		<use xlink:href="#XMLID_209_"  style="overflow:visible;"/>
	</clipPath>
	
		<clipPath id="XMLID_00000056426154858722784290000006237913273244126871_" style="clip-path:url(#XMLID_00000160886511560386101930000006405647839204117399_);">
		<use xlink:href="#XMLID_210_"  style="overflow:visible;"/>
	</clipPath>
	
		<clipPath id="XMLID_00000091734095279357380610000006452803410708060297_" style="clip-path:url(#XMLID_00000056426154858722784290000006237913273244126871_);">
		<use xlink:href="#XMLID_211_"  style="overflow:visible;"/>
	</clipPath>
	
		<clipPath id="XMLID_00000067925666926788692310000006439580130117718157_" style="clip-path:url(#XMLID_00000091734095279357380610000006452803410708060297_);">
		<use xlink:href="#XMLID_212_"  style="overflow:visible;"/>
	</clipPath>
	
		<clipPath id="XMLID_00000087402283223249960680000015511226943112574353_" style="clip-path:url(#XMLID_00000067925666926788692310000006439580130117718157_);">
		<use xlink:href="#XMLID_215_"  style="overflow:visible;"/>
	</clipPath>
	
		<clipPath id="XMLID_00000150083799212899919510000017880447941682190471_" style="clip-path:url(#XMLID_00000087402283223249960680000015511226943112574353_);">
		<use xlink:href="#XMLID_216_"  style="overflow:visible;"/>
	</clipPath>
	
		<clipPath id="XMLID_00000036249234546485423690000004094575438666714774_" style="clip-path:url(#XMLID_00000150083799212899919510000017880447941682190471_);">
		<use xlink:href="#XMLID_217_"  style="overflow:visible;"/>
	</clipPath>
	
		<clipPath id="XMLID_00000074423148230289938140000003447027297580571319_" style="clip-path:url(#XMLID_00000036249234546485423690000004094575438666714774_);">
		<use xlink:href="#XMLID_226_"  style="overflow:visible;"/>
	</clipPath>
	
		<clipPath id="XMLID_00000129893755524377469890000016367823458274902920_" style="clip-path:url(#XMLID_00000074423148230289938140000003447027297580571319_);">
		<use xlink:href="#XMLID_229_"  style="overflow:visible;"/>
	</clipPath>
	
		<clipPath id="XMLID_00000118360768463820863490000010777532422678313407_" style="clip-path:url(#XMLID_00000129893755524377469890000016367823458274902920_);">
		<use xlink:href="#XMLID_244_"  style="overflow:visible;"/>
	</clipPath>
	
		<clipPath id="XMLID_00000105390120533396180730000011074420915053285810_" style="clip-path:url(#XMLID_00000118360768463820863490000010777532422678313407_);">
		<use xlink:href="#XMLID_245_"  style="overflow:visible;"/>
	</clipPath>
	
		<clipPath id="XMLID_00000160899545092264950340000016946359561913792420_" style="clip-path:url(#XMLID_00000105390120533396180730000011074420915053285810_);">
		<use xlink:href="#XMLID_246_"  style="overflow:visible;"/>
	</clipPath>
	
		<linearGradient id="XMLID_00000140003270981788713080000010175461036081548681_" gradientUnits="userSpaceOnUse" x1="227.3367" y1="573.4867" x2="1063.3945" y2="-237.2401">
		<stop  offset="0" style="stop-color:#9A9999"/>
		<stop  offset="0.2328" style="stop-color:#C7C6C6"/>
		<stop  offset="0.4116" style="stop-color:#E7E6E6"/>
		<stop  offset="0.6183" style="stop-color:#A2A2A1"/>
		<stop  offset="0.7082" style="stop-color:#828181"/>
		<stop  offset="0.908" style="stop-color:#484747"/>
		<stop  offset="1" style="stop-color:#343434"/>
	</linearGradient>
	
		<rect id="XMLID_90_" x="-3.54" y="-13.06" style="clip-path:url(#XMLID_00000160899545092264950340000016946359561913792420_);fill:url(#XMLID_00000140003270981788713080000010175461036081548681_);" width="1164.59" height="491.55"/>
</g>
</svg>
