<svg width="26" height="26" viewBox="0 0 26 26" fill="none" xmlns="http://www.w3.org/2000/svg">
<path d="M14.2852 0.501263C15.1974 0.497763 16.1096 0.506931 17.0215 0.528763L17.264 0.537513C17.544 0.547513 17.8202 0.560013 18.154 0.575013C19.484 0.637513 20.3915 0.847514 21.1877 1.15626C22.0127 1.47376 22.7077 1.90376 23.4027 2.59876C24.0382 3.22327 24.53 3.9787 24.844 4.81251C25.1527 5.60877 25.3627 6.51752 25.4252 7.84752C25.4402 8.18002 25.4527 8.45752 25.4627 8.73752L25.4702 8.98002C25.4924 9.89151 25.502 10.8033 25.499 11.715L25.5002 12.6475V14.285C25.5033 15.1972 25.4937 16.1094 25.4715 17.0213L25.464 17.2638C25.454 17.5438 25.4415 17.82 25.4265 18.1538C25.364 19.4838 25.1515 20.3913 24.844 21.1875C24.531 22.0222 24.0391 22.7783 23.4027 23.4025C22.7777 24.0379 22.0219 24.5297 21.1877 24.8438C20.3915 25.1525 19.484 25.3625 18.154 25.425C17.8202 25.44 17.544 25.4525 17.264 25.4625L17.0215 25.47C16.1096 25.4922 15.1974 25.5018 14.2852 25.4988L13.3527 25.5H11.7165C10.8043 25.5031 9.89214 25.4935 8.98023 25.4713L8.73773 25.4638C8.441 25.453 8.14432 25.4405 7.84773 25.4263C6.51773 25.3638 5.61023 25.1513 4.81273 24.8438C3.97859 24.5305 3.22303 24.0386 2.59898 23.4025C1.96279 22.7779 1.47051 22.022 1.15648 21.1875C0.847733 20.3913 0.637733 19.4838 0.575233 18.1538C0.561312 17.8572 0.548811 17.5605 0.537733 17.2638L0.531483 17.0213C0.508438 16.1094 0.49802 15.1972 0.500233 14.285V11.715C0.496744 10.8033 0.505912 9.89151 0.527733 8.98002L0.536483 8.73752C0.546483 8.45752 0.558983 8.18002 0.573983 7.84752C0.636483 6.51627 0.846483 5.61002 1.15523 4.81251C1.46945 3.97829 1.96269 3.22307 2.60023 2.60001C3.22385 1.96345 3.97894 1.47073 4.81273 1.15626C5.61023 0.847514 6.51648 0.637513 7.84773 0.575013L8.73773 0.537513L8.98023 0.531264C9.89171 0.50823 10.8035 0.497812 11.7152 0.500013L14.2852 0.501263ZM13.0002 6.75127C12.1721 6.73955 11.3499 6.89255 10.5815 7.20135C9.81298 7.51016 9.11354 7.96862 8.52379 8.55009C7.93404 9.13155 7.46573 9.82444 7.14609 10.5885C6.82645 11.3525 6.66185 12.1724 6.66185 13.0006C6.66185 13.8288 6.82645 14.6488 7.14609 15.4128C7.46573 16.1768 7.93404 16.8697 8.52379 17.4512C9.11354 18.0327 9.81298 18.4911 10.5815 18.7999C11.3499 19.1087 12.1721 19.2617 13.0002 19.25C14.6578 19.25 16.2475 18.5915 17.4197 17.4194C18.5918 16.2473 19.2502 14.6576 19.2502 13C19.2502 11.3424 18.5918 9.7527 17.4197 8.5806C16.2475 7.4085 14.6578 6.75127 13.0002 6.75127ZM13.0002 9.25127C13.4984 9.24209 13.9933 9.33226 14.4562 9.51653C14.9191 9.70079 15.3407 9.97544 15.6962 10.3244C16.0518 10.6735 16.3342 11.0898 16.527 11.5492C16.7199 12.0086 16.8192 12.5018 16.8193 13C16.8194 13.4982 16.7202 13.9915 16.5275 14.4509C16.3348 14.9104 16.0525 15.3268 15.6971 15.6759C15.3417 16.0251 14.9202 16.2999 14.4574 16.4843C13.9946 16.6687 13.4996 16.759 13.0015 16.75C12.0069 16.75 11.0531 16.3549 10.3498 15.6517C9.64657 14.9484 9.25148 13.9946 9.25148 13C9.25148 12.0055 9.64657 11.0516 10.3498 10.3484C11.0531 9.6451 12.0069 9.25002 13.0015 9.25002L13.0002 9.25127ZM19.5627 4.87627C19.1595 4.89241 18.7781 5.06395 18.4985 5.35498C18.2189 5.64601 18.0627 6.03393 18.0627 6.43752C18.0627 6.8411 18.2189 7.22903 18.4985 7.52005C18.7781 7.81108 19.1595 7.98263 19.5627 7.99877C19.9771 7.99877 20.3746 7.83415 20.6676 7.54112C20.9606 7.24809 21.1252 6.85067 21.1252 6.43627C21.1252 6.02186 20.9606 5.62444 20.6676 5.33141C20.3746 5.03839 19.9771 4.87377 19.5627 4.87377V4.87627Z" fill="url(#paint0_linear_113_278)"/>
<defs>
<linearGradient id="paint0_linear_113_278" x1="0.923262" y1="13.0002" x2="17.0788" y2="13.0002" gradientUnits="userSpaceOnUse">
<stop stop-color="#8CDBFF"/>
<stop offset="1" stop-color="#00B0FF"/>
</linearGradient>
</defs>
</svg>
