<svg width="38" height="38" viewBox="0 0 38 38" fill="none" xmlns="http://www.w3.org/2000/svg">
<path d="M20.6277 3.16821C21.7831 3.16377 22.9385 3.17539 24.0936 3.20304L24.4008 3.21412C24.7554 3.22679 25.1054 3.24262 25.5281 3.26162C27.2128 3.34079 28.3623 3.60679 29.3709 3.99788C30.4159 4.40004 31.2962 4.94471 32.1765 5.82504C32.9814 6.61609 33.6044 7.57296 34.0021 8.62913C34.3932 9.63771 34.6592 10.7888 34.7384 12.4735C34.7574 12.8946 34.7732 13.2461 34.7859 13.6008L34.7954 13.908C34.8235 15.0625 34.8356 16.2174 34.8318 17.3723L34.8334 18.5535V20.6276C34.8373 21.783 34.8251 22.9385 34.7969 24.0935L34.7874 24.4007C34.7748 24.7554 34.7589 25.1053 34.7399 25.528C34.6608 27.2127 34.3916 28.3622 34.0021 29.3708C33.6057 30.4281 32.9826 31.3857 32.1765 32.1765C31.3848 32.9813 30.4274 33.6042 29.3709 34.0021C28.3623 34.3931 27.2128 34.6591 25.5281 34.7383C25.1054 34.7573 24.7554 34.7731 24.4008 34.7858L24.0936 34.7953C22.9385 34.8234 21.7831 34.8356 20.6277 34.8317L19.4465 34.8333H17.3739C16.2185 34.8372 15.0631 34.8251 13.908 34.7969L13.6009 34.7874C13.225 34.7738 12.8492 34.7579 12.4735 34.7399C10.7889 34.6607 9.63935 34.3916 8.62919 34.0021C7.5726 33.6052 6.61556 32.9821 5.8251 32.1765C5.01926 31.3853 4.39571 30.4278 3.99794 29.3708C3.60685 28.3622 3.34085 27.2127 3.26168 25.528C3.24405 25.1523 3.22822 24.7766 3.21419 24.4007L3.20627 24.0935C3.17708 22.9385 3.16388 21.7831 3.16669 20.6276V17.3723C3.16227 16.2174 3.17388 15.0625 3.20152 13.908L3.2126 13.6008C3.22527 13.2461 3.2411 12.8946 3.2601 12.4735C3.33927 10.7872 3.60527 9.63929 3.99635 8.62913C4.39436 7.57244 5.01913 6.61583 5.82669 5.82663C6.6166 5.02032 7.57304 4.3962 8.62919 3.99788C9.63935 3.60679 10.7873 3.34079 12.4735 3.26162L13.6009 3.21412L13.908 3.20621C15.0626 3.17703 16.2174 3.16384 17.3724 3.16662L20.6277 3.16821ZM19 11.0849C17.9511 11.07 16.9096 11.2638 15.9362 11.655C14.9628 12.0461 14.0769 12.6269 13.3299 13.3634C12.5828 14.0999 11.9897 14.9776 11.5848 15.9453C11.1799 16.9131 10.9714 17.9517 10.9714 19.0008C10.9714 20.0498 11.1799 21.0884 11.5848 22.0562C11.9897 23.0239 12.5828 23.9016 13.3299 24.6381C14.0769 25.3747 14.9628 25.9554 15.9362 26.3465C16.9096 26.7377 17.9511 26.9315 19 26.9166C21.0997 26.9166 23.1133 26.0826 24.5979 24.5979C26.0826 23.1132 26.9167 21.0996 26.9167 19C26.9167 16.9003 26.0826 14.8867 24.5979 13.402C23.1133 11.9174 21.0997 11.0849 19 11.0849ZM19 14.2515C19.631 14.2399 20.2579 14.3541 20.8443 14.5875C21.4306 14.8209 21.9646 15.1688 22.4149 15.6109C22.8653 16.053 23.223 16.5804 23.4673 17.1623C23.7116 17.7441 23.8374 18.3689 23.8375 18.9999C23.8376 19.631 23.712 20.2558 23.4679 20.8378C23.2239 21.4197 22.8663 21.9472 22.416 22.3895C21.9658 22.8317 21.432 23.1798 20.8458 23.4134C20.2595 23.6469 19.6326 23.7614 19.0016 23.75C17.7418 23.75 16.5336 23.2495 15.6428 22.3587C14.752 21.4679 14.2516 20.2597 14.2516 19C14.2516 17.7402 14.752 16.532 15.6428 15.6412C16.5336 14.7504 17.7418 14.25 19.0016 14.25L19 14.2515ZM27.3125 8.70988C26.8017 8.73032 26.3187 8.94762 25.9645 9.31625C25.6103 9.68488 25.4125 10.1763 25.4125 10.6875C25.4125 11.1987 25.6103 11.69 25.9645 12.0587C26.3187 12.4273 26.8017 12.6446 27.3125 12.665C27.8374 12.665 28.3408 12.4565 28.712 12.0854C29.0832 11.7142 29.2917 11.2108 29.2917 10.6859C29.2917 10.161 29.0832 9.65756 28.712 9.28639C28.3408 8.91523 27.8374 8.70671 27.3125 8.70671V8.70988Z" fill="url(#paint0_linear_63_5)"/>
<defs>
<linearGradient id="paint0_linear_63_5" x1="3.70252" y1="19.0001" x2="24.1661" y2="19.0001" gradientUnits="userSpaceOnUse">
<stop stop-color="#8CDBFF"/>
<stop offset="1" stop-color="#00B0FF"/>
</linearGradient>
</defs>
</svg>
