<svg width="30" height="30" viewBox="0 0 30 30" fill="none" xmlns="http://www.w3.org/2000/svg">
<rect width="30" height="30" rx="8" fill="url(#paint0_linear_63_9)"/>
<path d="M20.75 7.275C19.8955 6.29953 19.4246 5.04679 19.425 3.75H15.5625V19.25C15.5327 20.0888 15.1785 20.8833 14.5747 21.4662C13.9708 22.0491 13.1643 22.3749 12.325 22.375C10.55 22.375 9.07495 20.925 9.07495 19.125C9.07495 16.975 11.15 15.3625 13.2875 16.025V12.075C8.97495 11.5 5.19995 14.85 5.19995 19.125C5.19995 23.2875 8.64995 26.25 12.3125 26.25C16.2375 26.25 19.425 23.0625 19.425 19.125V11.2625C20.9912 12.3873 22.8717 12.9908 24.8 12.9875V9.125C24.8 9.125 22.45 9.2375 20.75 7.275Z" fill="black"/>
<defs>
<linearGradient id="paint0_linear_63_9" x1="0.508475" y1="15" x2="19.8941" y2="15" gradientUnits="userSpaceOnUse">
<stop stop-color="#8CDBFF"/>
<stop offset="1" stop-color="#00B0FF"/>
</linearGradient>
</defs>
</svg>
